<svg xmlns="http://www.w3.org/2000/svg" xmlns:xlink="http://www.w3.org/1999/xlink" width="24px" height="24px" viewBox="0 0 24 24" version="1.1">
<defs>
<radialGradient id="radial0" gradientUnits="userSpaceOnUse" cx="0" cy="0" fx="0" fy="0" r="1" gradientTransform="matrix(0.701332,5.519997,-4.075417,0.517794,13.482353,13.341176)">
<stop offset="0" style="stop-color:rgb(100%,40%,20%);stop-opacity:1;"/>
<stop offset="1" style="stop-color:rgb(89.019608%,30.196078%,4.705882%);stop-opacity:1;"/>
</radialGradient>
<radialGradient id="radial1" gradientUnits="userSpaceOnUse" cx="0" cy="0" fx="0" fy="0" r="1" gradientTransform="matrix(7.043061,0,0,7.043061,12.000071,11.964706)">
<stop offset="0.0614373" style="stop-color:rgb(36.470588%,21.960784%,18.431373%);stop-opacity:1;"/>
<stop offset="0.3055" style="stop-color:rgb(34.509804%,20.784314%,17.254902%);stop-opacity:1;"/>
<stop offset="0.6021" style="stop-color:rgb(28.627451%,17.254902%,14.117647%);stop-opacity:1;"/>
<stop offset="0.9248" style="stop-color:rgb(19.215686%,11.372549%,8.235294%);stop-opacity:1;"/>
<stop offset="0.9532" style="stop-color:rgb(18.039216%,10.588235%,7.843137%);stop-opacity:1;"/>
</radialGradient>
<radialGradient id="radial2" gradientUnits="userSpaceOnUse" cx="0" cy="0" fx="0" fy="0" r="1" gradientTransform="matrix(6.6843,-2.893026,2.893026,6.6843,12.141176,12.317647)">
<stop offset="0.891806" style="stop-color:rgb(23.921569%,65.098039%,63.137255%);stop-opacity:1;"/>
<stop offset="1" style="stop-color:rgb(20%,49.019608%,49.019608%);stop-opacity:1;"/>
</radialGradient>
<linearGradient id="linear0" gradientUnits="userSpaceOnUse" x1="268.375" y1="299.358" x2="257.404" y2="266.26" gradientTransform="matrix(0.0705882,0,0,0.0705882,0,0)">
<stop offset="0.5151" style="stop-color:rgb(23.921569%,65.098039%,63.137255%);stop-opacity:1;"/>
<stop offset="0.648" style="stop-color:rgb(23.529412%,63.921569%,61.960784%);stop-opacity:1;"/>
<stop offset="0.7629" style="stop-color:rgb(23.137255%,59.607843%,58.039216%);stop-opacity:1;"/>
<stop offset="0.8711" style="stop-color:rgb(21.960784%,52.54902%,51.764706%);stop-opacity:1;"/>
<stop offset="0.9746" style="stop-color:rgb(20.392157%,42.745098%,42.745098%);stop-opacity:1;"/>
<stop offset="1" style="stop-color:rgb(20%,40%,40%);stop-opacity:1;"/>
</linearGradient>
<radialGradient id="radial3" gradientUnits="userSpaceOnUse" cx="0" cy="0" fx="0" fy="0" r="1" gradientTransform="matrix(5.717668,0,0,5.717668,10.012588,11.215694)">
<stop offset="0" style="stop-color:rgb(36.470588%,21.960784%,18.431373%);stop-opacity:1;"/>
<stop offset="0.2502" style="stop-color:rgb(34.509804%,20.784314%,17.254902%);stop-opacity:1;"/>
<stop offset="0.5542" style="stop-color:rgb(28.627451%,17.254902%,14.117647%);stop-opacity:1;"/>
<stop offset="0.8849" style="stop-color:rgb(19.215686%,11.372549%,8.235294%);stop-opacity:1;"/>
<stop offset="0.914" style="stop-color:rgb(18.039216%,10.588235%,7.843137%);stop-opacity:1;"/>
</radialGradient>
</defs>
<g id="surface1">
<path style=" stroke:none;fill-rule:nonzero;fill:rgb(100%,100%,100%);fill-opacity:1;" d="M 12 0 C 18.628906 0 24 5.371094 24 12 C 24 18.628906 18.628906 24 12 24 C 5.371094 24 0 18.628906 0 12 C 0 5.371094 5.371094 0 12 0 Z M 12 0 "/>
<path style=" stroke:none;fill-rule:nonzero;fill:url(#radial0);" d="M 14.449219 14.039062 C 14.109375 13.554688 13.566406 13.050781 13.226562 12.683594 C 13.109375 12.550781 13.050781 12.5 12.910156 12.359375 C 12.839844 12.289062 12.875 12.167969 12.972656 12.15625 C 13.75 12.019531 14.117188 11.78125 14.527344 11.371094 C 14.980469 10.925781 15.203125 10.371094 15.203125 9.71875 C 15.203125 9.210938 15.070312 8.753906 14.796875 8.328125 C 14.519531 7.914062 14.160156 7.617188 13.707031 7.453125 C 13.257812 7.292969 12.59375 7.207031 11.71875 7.207031 L 10.992188 7.207031 C 10.925781 7.207031 10.871094 7.261719 10.871094 7.328125 L 10.871094 8.074219 C 10.871094 8.140625 10.925781 8.195312 10.992188 8.195312 L 11.773438 8.195312 C 12.5 8.195312 13.039062 8.335938 13.371094 8.617188 C 13.707031 8.902344 13.878906 9.261719 13.878906 9.699219 C 13.878906 9.996094 13.792969 10.269531 13.617188 10.523438 C 13.441406 10.777344 13.1875 10.960938 12.855469 11.082031 C 12.523438 11.195312 11.984375 11.351562 11.394531 11.351562 L 10.445312 11.386719 L 9.910156 12.15625 C 9.917969 12.15625 9.875 12.421875 9.882812 12.421875 C 10.207031 12.421875 10.453125 12.375 11.222656 12.523438 C 11.449219 12.566406 11.894531 12.933594 12.148438 13.222656 C 12.507812 13.625 12.847656 13.96875 13.304688 14.542969 L 16.898438 18.820312 C 16.921875 18.847656 16.949219 18.859375 16.984375 18.859375 L 18.4375 18.859375 C 18.480469 18.859375 18.5 18.8125 18.472656 18.785156 Z M 14.449219 14.039062 "/>
<path style=" stroke:none;fill-rule:nonzero;fill:url(#radial1);" d="M 12.140625 4.921875 C 8.140625 4.84375 4.878906 8.105469 4.957031 12.105469 C 5.027344 15.855469 8.074219 18.917969 11.824219 19.007812 C 12.910156 19.039062 13.949219 18.8125 14.878906 18.394531 C 14.949219 18.359375 14.972656 18.273438 14.929688 18.210938 L 14.140625 17.144531 C 14.105469 17.105469 14.046875 17.082031 13.996094 17.105469 C 13.328125 17.363281 12.601562 17.5 11.835938 17.46875 C 9.007812 17.386719 6.675781 15.132812 6.507812 12.304688 C 6.421875 10.898438 6.867188 9.601562 7.652344 8.582031 L 7.652344 7.261719 C 7.652344 7.199219 7.707031 7.144531 7.773438 7.144531 L 7.914062 7.144531 C 7.976562 7.144531 8.03125 7.199219 8.03125 7.261719 L 8.03125 8.144531 C 9.050781 7.085938 10.476562 6.4375 12.0625 6.453125 C 15.019531 6.480469 17.457031 8.878906 17.519531 11.835938 C 17.542969 12.894531 17.273438 13.882812 16.777344 14.730469 C 16.695312 14.871094 16.738281 15.007812 16.84375 15.128906 L 17.449219 15.925781 C 17.554688 16.050781 17.753906 16.042969 17.84375 15.902344 C 18.628906 14.753906 19.074219 13.355469 19.050781 11.851562 C 18.988281 8.082031 15.917969 4.996094 12.140625 4.921875 Z M 12.140625 4.921875 "/>
<path style=" stroke:none;fill-rule:nonzero;fill:rgb(12.156863%,17.647059%,18.039216%);fill-opacity:1;" d="M 12.007812 3.089844 C 7.101562 3.085938 3.128906 7.058594 3.128906 11.964844 C 3.128906 16.808594 7.066406 20.789062 11.910156 20.835938 C 13.390625 20.851562 14.789062 20.507812 16.023438 19.878906 C 16.09375 19.84375 16.109375 19.742188 16.058594 19.6875 L 15.488281 19.078125 C 14.414062 19.601562 13.207031 19.898438 11.929688 19.882812 C 7.558594 19.84375 4.023438 16.222656 4.085938 11.851562 C 4.136719 7.558594 7.617188 4.085938 11.914062 4.042969 C 16.3125 4.003906 19.921875 7.574219 19.921875 11.964844 C 19.921875 13.835938 19.269531 15.558594 18.183594 16.914062 L 18.75 17.511719 C 18.796875 17.570312 18.882812 17.5625 18.933594 17.507812 C 20.132812 16.007812 20.851562 14.117188 20.871094 12.0625 C 20.921875 7.144531 16.921875 3.089844 12.007812 3.089844 Z M 12.007812 3.089844 "/>
<path style=" stroke:none;fill-rule:nonzero;fill:url(#radial2);" d="M 11.660156 4.925781 C 9.226562 5.039062 7.117188 6.394531 5.945312 8.371094 C 7.015625 6.96875 8.71875 6.089844 10.625 5.949219 C 11.484375 5.886719 12.316406 5.992188 13.023438 6.289062 C 13.03125 6.296875 13.109375 6.324219 13.109375 6.324219 C 15.375 7.152344 17.527344 9.234375 17.511719 11.957031 C 17.511719 12.175781 17.554688 13.382812 16.703125 14.824219 C 16.664062 14.886719 16.660156 14.957031 16.707031 15.015625 L 17.570312 16.101562 C 17.617188 16.15625 17.71875 16.164062 17.761719 16.101562 C 18.753906 14.546875 18.96875 13.847656 19.042969 12.28125 C 19.222656 8.097656 15.855469 4.730469 11.660156 4.925781 Z M 11.660156 4.925781 "/>
<path style=" stroke:none;fill-rule:nonzero;fill:url(#linear0);" d="M 19.703125 20.230469 C 19.695312 20.214844 19.679688 20.203125 19.660156 20.175781 L 18.902344 19.285156 C 18.890625 19.261719 18.859375 19.257812 18.832031 19.257812 L 17.292969 19.257812 C 17.273438 19.257812 17.257812 19.285156 17.273438 19.296875 L 18.128906 20.316406 C 18.148438 20.34375 18.183594 20.363281 18.226562 20.363281 L 19.628906 20.363281 C 19.703125 20.359375 19.742188 20.285156 19.703125 20.230469 Z M 19.703125 20.230469 "/>
<path style=" stroke:none;fill-rule:nonzero;fill:url(#radial3);" d="M 8.027344 7.144531 L 8.027344 15.054688 C 8.027344 15.0625 8.027344 15.070312 8.027344 15.078125 C 8.039062 15.164062 8.175781 15.761719 8.84375 15.761719 L 10.109375 15.761719 C 10.191406 15.761719 10.257812 15.699219 10.257812 15.613281 C 10.257812 15.535156 10.191406 15.464844 10.109375 15.464844 L 9.289062 15.464844 C 9.203125 15.464844 9.140625 15.402344 9.140625 15.316406 L 9.140625 12.605469 C 9.140625 12.53125 9.203125 12.457031 9.289062 12.457031 L 10.914062 12.457031 C 10.914062 12.457031 11.910156 12.515625 12 11.511719 C 12.007812 11.429688 11.9375 11.351562 11.851562 11.351562 L 9.238281 11.351562 C 9.15625 11.351562 9.089844 11.285156 9.089844 11.203125 L 9.089844 6.8125 C 9.089844 6.707031 8.984375 6.636719 8.886719 6.675781 L 8.117188 7.007812 C 8.0625 7.03125 8.027344 7.085938 8.027344 7.144531 Z M 8.027344 7.144531 "/>
</g>
</svg>
