<svg width="340" height="340" viewBox="0 0 340 340" fill="none" xmlns="http://www.w3.org/2000/svg">
<rect width="340" height="340" rx="170" fill="white"/>
<path d="M204.7 198.9C199.9 192 192.2 184.9 187.4 179.7C185.7 177.8 184.9 177.1 182.9 175.1C181.9 174.1 182.4 172.4 183.8 172.2C194.8 170.3 200 166.9 205.8 161.1C212.2 154.8 215.4 146.9 215.4 137.7C215.4 130.5 213.5 124 209.6 118C205.7 112.1 200.6 107.9 194.2 105.6C187.8 103.3 178.4 102.1 166 102.1H155.7C154.8 102.1 154 102.9 154 103.8V114.4C154 115.3 154.8 116.1 155.7 116.1H166.8C177.1 116.1 184.7 118.1 189.4 122.1C194.2 126.1 196.6 131.2 196.6 137.4C196.6 141.6 195.4 145.5 192.9 149.1C190.4 152.7 186.8 155.3 182.1 157C177.4 158.6 169.8 160.8 161.4 160.8L148 161.3L140.4 172.2C140.5 172.2 139.9 176 140 176C144.6 176 148.1 175.3 159 177.4C162.2 178 168.5 183.2 172.1 187.3C177.2 193 182 197.9 188.5 206L239.4 266.6C239.7 267 240.1 267.2 240.6 267.2H261.2C261.8 267.2 262.1 266.5 261.7 266.1L204.7 198.9Z" fill="url(#paint0_radial_105_2816)"/>
<path d="M172 69.7C115.3 68.6 69.1 114.8 70.2 171.5C71.2 224.6 114.4 268 167.5 269.3C182.9 269.7 197.6 266.5 210.8 260.6C211.8 260.1 212.1 258.9 211.5 258L200.3 242.9C199.8 242.3 199 242 198.3 242.3C188.8 246 178.5 247.9 167.7 247.5C127.6 246.3 94.6 214.4 92.2 174.3C91 154.4 97.3 136 108.4 121.6V102.9C108.4 102 109.2 101.2 110.1 101.2H112.1C113 101.2 113.8 102 113.8 102.9V115.4C128.2 100.4 148.4 91.2 170.9 91.4C212.8 91.8 247.3 125.8 248.2 167.7C248.5 182.7 244.7 196.7 237.7 208.7C236.5 210.7 237.1 212.6 238.6 214.3L247.2 225.6C248.7 227.4 251.5 227.3 252.8 225.3C263.9 209 270.2 189.2 269.9 167.9C269 114.5 225.5 70.8 172 69.7Z" fill="url(#paint1_radial_105_2816)"/>
<path d="M170.1 43.7999C100.6 43.6999 44.3 99.9999 44.3 169.5C44.3 238.1 100.1 294.5 168.7 295.2C189.7 295.4 209.5 290.5 227 281.6C228 281.1 228.2 279.7 227.5 278.9L219.4 270.3C204.2 277.7 187.1 281.9 169 281.7C107.1 281.1 57.0001 229.8 57.9001 167.9C58.6001 107.1 107.9 57.8999 168.8 57.2999C231.1 56.6999 282.2 107.3 282.2 169.5C282.2 196 273 220.4 257.6 239.6L265.6 248.1C266.3 248.9 267.5 248.8 268.2 248C285.2 226.8 295.4 200 295.7 170.9C296.4 101.2 239.7 43.7999 170.1 43.7999Z" fill="#1F2D2E"/>
<path d="M165.2 69.8C130.7 71.4 100.8 90.6 84.2 118.6C99.4 98.7 123.5 86.3 150.5 84.3C162.7 83.4 174.5 84.9 184.5 89.1C184.6 89.2 185.7 89.6 185.7 89.6C217.8 101.3 248.3 130.8 248.1 169.4C248.1 172.5 248.7 189.6 236.6 210C236.1 210.9 236 211.9 236.7 212.7L248.9 228.1C249.6 228.9 251 229 251.6 228.1C265.7 206.1 268.7 196.2 269.8 174C272.3 114.7 224.6 67 165.2 69.8Z" fill="url(#paint2_radial_105_2816)"/>
<path d="M279.1 286.6C279 286.4 278.8 286.2 278.5 285.8L267.8 273.2C267.6 272.9 267.2 272.8 266.8 272.8H245C244.7 272.8 244.5 273.2 244.7 273.4L256.8 287.8C257.1 288.2 257.6 288.5 258.2 288.5H278.1C279.1 288.4 279.7 287.4 279.1 286.6Z" fill="url(#paint3_linear_105_2816)"/>
<path d="M113.7 101.2V213.3C113.7 213.4 113.7 213.5 113.7 213.6C113.9 214.8 115.8 223.3 125.3 223.3H143.2C144.4 223.3 145.3 222.4 145.3 221.2C145.3 220.1 144.4 219.1 143.2 219.1H131.6C130.4 219.1 129.5 218.2 129.5 217V178.6C129.5 177.5 130.4 176.5 131.6 176.5H154.6C154.6 176.5 168.7 177.3 170 163.1C170.1 161.9 169.1 160.8 167.9 160.8H130.9C129.7 160.8 128.8 159.9 128.8 158.7V96.5C128.8 95 127.3 94 125.9 94.6L115 99.3C114.2 99.6 113.7 100.4 113.7 101.2Z" fill="url(#paint4_radial_105_2816)"/>
<defs>
<radialGradient id="paint0_radial_105_2816" cx="0" cy="0" r="1" gradientUnits="userSpaceOnUse" gradientTransform="translate(191 189) rotate(82.7592) scale(78.8286 58.1992)">
<stop stop-color="#FF6633"/>
<stop offset="1" stop-color="#E34D0C"/>
</radialGradient>
<radialGradient id="paint1_radial_105_2816" cx="0" cy="0" r="1" gradientUnits="userSpaceOnUse" gradientTransform="translate(170.001 169.5) scale(99.7767 99.7767)">
<stop offset="0.0614373" stop-color="#5D382F"/>
<stop offset="0.3055" stop-color="#58352C"/>
<stop offset="0.6021" stop-color="#492C24"/>
<stop offset="0.9248" stop-color="#311D15"/>
<stop offset="0.9532" stop-color="#2E1B14"/>
</radialGradient>
<radialGradient id="paint2_radial_105_2816" cx="0" cy="0" r="1" gradientUnits="userSpaceOnUse" gradientTransform="translate(172 174.5) rotate(-23.4034) scale(103.183 103.183)">
<stop offset="0.891806" stop-color="#3DA6A1"/>
<stop offset="1" stop-color="#337D7D"/>
</radialGradient>
<linearGradient id="paint3_linear_105_2816" x1="268.375" y1="299.358" x2="257.404" y2="266.26" gradientUnits="userSpaceOnUse">
<stop offset="0.5151" stop-color="#3DA6A1"/>
<stop offset="0.648" stop-color="#3CA39E"/>
<stop offset="0.7629" stop-color="#3B9894"/>
<stop offset="0.8711" stop-color="#388684"/>
<stop offset="0.9746" stop-color="#346D6D"/>
<stop offset="1" stop-color="#336666"/>
</linearGradient>
<radialGradient id="paint4_radial_105_2816" cx="0" cy="0" r="1" gradientUnits="userSpaceOnUse" gradientTransform="translate(141.845 158.889) scale(81.0003 81.0003)">
<stop stop-color="#5D382F"/>
<stop offset="0.2502" stop-color="#58352C"/>
<stop offset="0.5542" stop-color="#492C24"/>
<stop offset="0.8849" stop-color="#311D15"/>
<stop offset="0.914" stop-color="#2E1B14"/>
</radialGradient>
</defs>
</svg>