<svg width="168" height="32" viewBox="0 0 168 32" fill="none" xmlns="http://www.w3.org/2000/svg">
<rect width="32" height="32" rx="16" fill="white"/>
<path fill-rule="evenodd" clip-rule="evenodd" d="M16.48 4.26399C16.9168 4.27359 17.488 4.31679 17.752 4.35999C18.016 4.40319 18.448 4.48479 18.712 4.53759C18.976 4.59519 19.2256 4.65759 19.264 4.67679C19.3024 4.70079 19.5088 4.76799 19.72 4.83519C19.9312 4.89759 20.2672 5.02239 20.464 5.10879C20.6608 5.19039 21.0208 5.35839 21.256 5.47359C21.4912 5.59359 21.784 5.74719 21.904 5.81439C22.024 5.88159 22.2688 6.03999 22.456 6.15999C22.6432 6.27999 22.912 6.46719 23.056 6.57279C23.2 6.68319 23.5264 6.95199 23.776 7.17759C24.0256 7.39839 24.376 7.74399 24.5536 7.94079C24.7264 8.13759 24.9472 8.39199 25.0384 8.51199C25.1296 8.63199 25.3264 8.90079 25.4704 9.11199C25.6144 9.32319 25.8016 9.60639 25.8832 9.73599C25.9696 9.87039 26.176 10.2544 26.344 10.6C26.512 10.9456 26.728 11.44 26.824 11.704C26.92 11.968 27.0736 12.4768 27.1696 12.832C27.2608 13.1872 27.3808 13.7488 27.4288 14.08C27.4912 14.4928 27.5152 14.9632 27.52 15.592C27.52 16.0912 27.4864 16.816 27.448 17.2C27.4096 17.584 27.3568 17.9632 27.3328 18.04C27.304 18.1168 27.2608 18.3136 27.232 18.472C27.1984 18.6304 27.0688 19.072 26.944 19.456C26.8192 19.84 26.6224 20.3584 26.512 20.608C26.4016 20.8576 26.248 21.184 26.1664 21.328C26.0848 21.472 25.9216 21.7648 25.7968 21.976C25.6768 22.1872 25.48 22.4992 25.36 22.672C25.2448 22.8448 25.0528 23.0752 24.9424 23.1904C24.8176 23.3104 24.6736 23.4016 24.5824 23.4208C24.496 23.4352 24.376 23.4256 24.3184 23.3968C24.256 23.368 24.1456 23.2288 24.0688 23.0944C23.992 22.9552 23.8672 22.7728 23.656 22.5328L23.8432 22.3264C23.9488 22.2112 24.184 21.9136 24.376 21.664C24.5632 21.4144 24.8224 21.0448 24.952 20.848C25.0768 20.6512 25.2928 20.2528 25.432 19.96C25.5712 19.6672 25.7632 19.1968 25.8544 18.904C25.9504 18.6112 26.0704 18.1696 26.1232 17.92C26.176 17.6704 26.248 17.2288 26.2816 16.936C26.3152 16.6432 26.344 16.1728 26.344 15.88C26.344 15.5872 26.3152 15.1168 26.2816 14.824C26.248 14.5312 26.1856 14.1328 26.1424 13.936C26.104 13.7392 25.9984 13.36 25.912 13.096C25.8304 12.832 25.6816 12.4192 25.5856 12.184C25.4896 11.9488 25.3456 11.6128 25.2592 11.44C25.1776 11.2672 24.9904 10.9312 24.8464 10.696C24.7072 10.4608 24.5008 10.144 24.4 9.99999C24.2944 9.85599 24.04 9.54399 23.8336 9.30399C23.6272 9.06399 23.2432 8.67999 22.984 8.44479C22.72 8.20959 22.3504 7.90719 22.168 7.77279C21.9808 7.63839 21.712 7.45119 21.568 7.35519C21.424 7.26399 21.1744 7.11039 21.016 7.01919C20.8576 6.92319 20.5792 6.77919 20.392 6.69279C20.2048 6.60639 19.8592 6.45759 19.624 6.36639C19.3888 6.27519 19.1248 6.17439 19.048 6.15039C18.9712 6.12639 18.7744 6.06879 18.616 6.03039C18.4576 5.99199 18.1552 5.92479 17.944 5.87679C17.7328 5.82879 17.4928 5.76159 17.416 5.72319C17.2912 5.66559 17.272 5.62719 17.2576 5.43999C17.248 5.25759 17.2288 5.21439 17.1136 5.16159C17.0416 5.12799 16.8208 5.08479 16.624 5.07039C16.4272 5.06079 16.0144 5.07039 15.712 5.09919C15.4096 5.12799 14.9632 5.18559 14.728 5.22399C14.4928 5.26239 14.1424 5.32479 13.96 5.35839C13.7776 5.39679 13.4944 5.46399 13.336 5.50719C13.1776 5.55039 13.0144 5.60799 12.976 5.62719C12.9376 5.65119 12.8272 5.68479 12.736 5.70399C12.6448 5.72319 12.3712 5.81919 12.136 5.91039C11.9008 6.00639 11.488 6.19359 11.224 6.32799C10.96 6.46719 10.5472 6.69759 10.312 6.84159C10.072 6.99039 9.74082 7.21599 9.56802 7.34559C9.39522 7.47039 9.17922 7.63839 9.08802 7.71999C8.99682 7.79679 8.72802 8.05119 8.05602 8.70879L7.88802 8.61759C7.79682 8.56959 7.69122 8.47839 7.65762 8.41119C7.62402 8.34879 7.55202 8.27199 7.49442 8.24799C7.43682 8.22399 7.38402 8.17599 7.37442 8.15199C7.36482 8.12799 7.59042 7.87359 7.87362 7.59039C8.15682 7.30719 8.53122 6.96639 8.70402 6.83199C8.87682 6.69279 9.18882 6.46719 9.40002 6.32799C9.61122 6.18879 9.92322 5.99679 10.096 5.90079C10.2688 5.80479 10.6144 5.62719 10.864 5.50719C11.1136 5.38719 11.5696 5.19519 11.872 5.07999C12.1744 4.96959 12.6496 4.81119 12.928 4.72959C13.2064 4.65279 13.6048 4.55199 13.816 4.51359C14.0272 4.47039 14.3728 4.41279 14.584 4.37919C14.7952 4.34559 15.1312 4.30239 15.328 4.28319C15.5248 4.26399 16.0432 4.25439 16.48 4.26399ZM14.7376 7.74879C14.9056 7.74879 15.2416 7.76799 15.4816 7.79199C15.7264 7.82079 16.12 7.88799 16.3552 7.95039C16.5904 8.00799 16.792 8.07999 16.8016 8.10399C16.8112 8.13279 16.5424 8.16639 16.1104 8.19039C15.7168 8.21439 15.1504 8.27199 14.848 8.31999C14.5456 8.36799 14.176 8.43039 14.032 8.46399C13.888 8.49279 13.672 8.55039 13.552 8.59359C13.432 8.63679 13.1392 8.74239 12.904 8.83359C12.6688 8.92479 12.3856 9.03519 12.28 9.08319C12.1744 9.13119 12.0064 9.20799 11.9056 9.25119C11.7664 9.31359 11.7232 9.36159 11.704 9.48159C11.6896 9.56799 11.6848 10.8256 11.704 14.92L14.6608 14.944C17.1952 14.9632 17.6272 14.9776 17.6992 15.04C17.7424 15.0784 17.7808 15.1552 17.7808 15.208C17.776 15.2608 17.7568 15.3232 17.7328 15.352C17.7088 15.3808 17.6416 15.5488 17.5792 15.7312C17.5024 15.9552 17.4336 16.0752 17.3728 16.0912C17.3248 16.1056 17.2528 16.1776 17.2192 16.2544C17.1808 16.3264 17.0368 16.4656 16.8976 16.5664C16.7632 16.672 16.5616 16.7824 16.456 16.816C16.312 16.864 15.7072 16.8784 11.704 16.888L11.68 18.496H11.44C11.2624 18.496 11.1472 18.4624 10.9936 18.3664C10.8832 18.2944 10.7152 18.1936 10.624 18.1408C10.5328 18.088 10.3456 18.0352 9.97602 17.992L9.99522 13.744C10.0096 10.7104 10.0288 9.47679 10.0672 9.42879C10.096 9.39039 10.2832 9.25119 10.48 9.12159C10.6768 8.99199 11.0896 8.76639 11.392 8.62239C11.6944 8.47839 12.1408 8.28639 12.376 8.19519C12.6112 8.10879 12.9712 7.99839 13.168 7.95519C13.3648 7.91199 13.7344 7.84959 13.984 7.81599C14.2336 7.78239 14.5744 7.75359 14.7424 7.74879H14.7376ZM9.55842 9.90399C9.58722 9.90399 9.62082 9.99999 9.63522 10.12C9.64962 10.24 9.64482 10.696 9.59682 11.944L9.44322 12.136C9.36162 12.2416 9.16482 12.5104 9.01122 12.736C8.85762 12.9616 8.63202 13.36 8.50722 13.624C8.38242 13.888 8.23842 14.2576 8.18082 14.44C8.12802 14.6272 8.05602 14.896 8.02242 15.04C7.97442 15.2176 7.95522 15.6256 7.95522 16.312C7.95522 16.984 7.97602 17.408 8.01762 17.584C8.05602 17.728 8.07042 17.8576 8.05122 17.872C8.03202 17.8864 7.82082 17.9008 7.58082 17.9104C7.16322 17.9248 7.12962 17.9344 6.99522 18.0688C6.86562 18.1984 6.82242 18.208 6.52482 18.208C6.23202 18.208 6.19842 18.1984 6.17442 18.1024C6.16002 18.04 6.13602 17.5168 6.12162 16.936C6.09762 15.9712 6.10722 15.8128 6.21762 15.112C6.29922 14.5936 6.40962 14.1328 6.55362 13.696C6.66882 13.3408 6.89922 12.7744 7.06242 12.4384C7.35522 11.824 7.35522 11.824 7.52322 11.824C7.67682 11.824 7.73442 11.776 8.13282 11.3344C8.37762 11.0608 8.78562 10.6288 9.04002 10.3744C9.29442 10.1152 9.52962 9.90399 9.55842 9.90399Z" fill="#3A2C27"/>
<path fill-rule="evenodd" clip-rule="evenodd" d="M7.4033 8.19519C7.4465 8.23839 7.50889 8.27199 7.53769 8.27199C7.57129 8.27199 7.62889 8.32959 7.65769 8.40159C7.69129 8.47359 7.80169 8.57439 8.07529 8.72799L7.96969 8.85279C7.91209 8.91999 7.74409 9.12639 7.59529 9.30879C7.45129 9.49119 7.24489 9.76959 7.13449 9.92799C7.02889 10.0864 6.86569 10.336 6.77449 10.48C6.68329 10.624 6.49609 10.9792 6.35689 11.272C6.21769 11.5648 6.06409 11.8864 6.01609 11.992C5.96809 12.0976 5.85289 12.4192 5.76169 12.712C5.67049 13.0048 5.56969 13.336 5.54089 13.456C5.51209 13.576 5.45449 13.8688 5.41129 14.104C5.36809 14.3584 5.32489 14.9344 5.31049 15.496C5.29609 16.0432 5.31049 16.6288 5.33929 16.864C5.36329 17.0896 5.41129 17.4352 5.43529 17.632C5.46409 17.8288 5.52169 18.1408 5.56489 18.328C5.60809 18.5152 5.69449 18.8368 5.75209 19.048C5.80969 19.2592 5.91529 19.5712 5.98729 19.744C6.05449 19.9168 6.11209 20.0704 6.11209 20.0896C6.11209 20.1136 6.21769 20.3392 6.34729 20.5936C6.47209 20.8528 6.68329 21.2272 6.81289 21.424C6.94249 21.6208 7.18729 21.9568 7.35529 22.168C7.52809 22.3792 7.88329 22.7728 8.15209 23.0464C8.41609 23.32 8.82409 23.6992 9.0641 23.8912C9.29929 24.0832 9.7121 24.3856 9.9761 24.5632C10.2401 24.7408 10.7345 25.024 11.0801 25.192C11.4209 25.36 11.8865 25.5568 12.1121 25.6384C12.3377 25.7152 12.7361 25.8304 13.0001 25.8832C13.2641 25.9408 13.6289 26.0176 13.8161 26.056C13.9985 26.0944 14.3489 26.1472 14.5841 26.1712C14.8193 26.2 15.2417 26.224 15.5201 26.224C15.7985 26.224 16.2737 26.1904 16.5761 26.1568C16.8785 26.1184 17.2913 26.0512 17.4881 26.0128C17.6849 25.9696 18.0641 25.8688 18.3281 25.7872C18.5921 25.7056 18.9665 25.5664 19.1537 25.4752C19.3457 25.384 19.5137 25.312 19.5281 25.312C19.5425 25.312 19.5521 25.3552 19.5521 25.408C19.5521 25.4608 19.6001 25.5616 19.6577 25.6384C19.7201 25.7104 19.7921 25.8112 19.8209 25.864C19.8497 25.9168 19.9745 26.0128 20.0993 26.08C20.2769 26.176 20.3105 26.2096 20.2577 26.2624C20.2289 26.296 20.1857 26.3248 20.1617 26.32C20.1425 26.32 19.9937 26.3824 19.8257 26.4592C19.6625 26.536 19.3889 26.6416 19.2161 26.6944C19.0433 26.7472 18.7937 26.824 18.6641 26.8624C18.5297 26.9008 18.2753 26.968 18.0881 27.0064C17.9009 27.0496 17.4161 27.1216 17.0081 27.1648C16.4849 27.2224 16.0673 27.2368 15.5921 27.2176C15.2225 27.1984 14.6849 27.1648 14.3921 27.136C14.0993 27.1072 13.7009 27.0544 13.5041 27.016C13.3073 26.9776 12.9809 26.9056 12.7841 26.8528C12.5873 26.8 12.2849 26.7136 12.1121 26.6656C11.9393 26.6128 11.6465 26.512 11.4641 26.4448C11.2769 26.3776 10.8593 26.1856 10.5281 26.0224C10.1969 25.8544 9.7313 25.5904 9.4961 25.432C9.25609 25.2736 8.9249 25.0336 8.7521 24.904C8.5793 24.7744 8.23369 24.4816 7.98409 24.2512C7.73449 24.0256 7.34089 23.6272 7.11529 23.3632C6.88969 23.104 6.57289 22.6912 6.41449 22.456C6.25609 22.2208 6.03049 21.8608 5.91049 21.664C5.79529 21.4672 5.59849 21.0976 5.47849 20.848C5.35849 20.5984 5.18089 20.1904 5.08489 19.9456C4.98889 19.7056 4.86409 19.3456 4.81129 19.1536C4.75369 18.9664 4.66729 18.6352 4.61929 18.424C4.57129 18.2128 4.48489 17.5648 4.31689 15.928L4.42729 14.848C4.48489 14.2528 4.56649 13.6288 4.60489 13.456C4.64329 13.2832 4.75369 12.8944 4.84489 12.592C4.93609 12.2896 5.07529 11.8768 5.15689 11.68C5.23849 11.4832 5.34889 11.224 5.40169 11.104C5.45929 10.984 5.56009 10.768 5.62729 10.624C5.69929 10.48 5.89129 10.1344 6.05449 9.85599C6.22249 9.57759 6.50569 9.15519 6.68809 8.91999C6.87529 8.67999 7.09129 8.40639 7.17769 8.30559C7.31209 8.14239 7.3361 8.12799 7.4033 8.19519ZM7.99369 17.8816C8.06089 17.872 8.09929 17.9392 8.15689 18.1456C8.20009 18.2992 8.30569 18.6592 8.39689 18.952C8.49769 19.2736 8.7425 19.84 9.0209 20.392C9.2753 20.8912 9.54889 21.4192 9.6305 21.5536C9.7169 21.6928 9.84649 21.8992 9.92809 22.0096C10.0049 22.12 10.1777 22.3072 10.3025 22.4272C10.4321 22.5472 10.5617 22.6576 10.5905 22.6672C10.6241 22.6768 10.7969 22.7824 10.9793 22.9072C11.1617 23.0272 11.4497 23.2192 11.6273 23.3296C11.8001 23.44 12.1697 23.632 12.4481 23.7568C12.7265 23.8816 13.0577 24.016 13.1921 24.0496C13.3217 24.088 13.6241 24.1696 13.8641 24.2368C14.0993 24.2992 14.6177 24.3856 15.0161 24.4288C15.4817 24.4768 15.8801 24.496 16.1441 24.472C16.3697 24.4528 16.7585 24.4096 17.0081 24.3712C17.2577 24.3328 17.6465 24.2464 17.8721 24.1792C18.0977 24.112 18.4961 23.9584 18.7601 23.8384C19.2017 23.632 19.2497 23.6224 19.3553 23.6848C19.4225 23.7232 19.5857 23.92 19.9841 24.496L19.8497 24.6112C19.7345 24.7168 19.7297 24.7408 19.7777 24.8272C19.8113 24.8848 19.8353 24.9328 19.8257 24.9424C19.8209 24.952 19.6913 25.0144 19.5377 25.0864C19.3889 25.1584 19.2401 25.216 19.2161 25.216C19.1873 25.216 19.1297 25.2352 19.0817 25.264C19.0385 25.288 18.9233 25.3408 18.8321 25.3792C18.7409 25.4224 18.5249 25.4944 18.3521 25.5472C18.1793 25.5952 17.8865 25.672 17.7041 25.7152C17.5169 25.7584 17.1281 25.8256 16.8401 25.864C16.5473 25.9024 16.0097 25.9312 15.6401 25.9312C15.2177 25.9312 14.7521 25.8976 14.3921 25.84C14.0753 25.792 13.6769 25.7152 13.5041 25.6768C13.3313 25.6384 12.9089 25.504 12.5681 25.3792C12.2225 25.2544 11.7185 25.0384 11.4401 24.8944C11.1617 24.7504 10.6961 24.4768 10.4081 24.2848C10.1153 24.0928 9.6737 23.7616 9.4241 23.5504C9.1745 23.3392 8.77609 22.9648 8.54089 22.7152C8.30089 22.4656 7.97929 22.1008 7.82569 21.904C7.66729 21.7072 7.44169 21.3952 7.32169 21.208C7.20169 21.0208 7.00009 20.6512 6.87049 20.3776C6.74569 20.1088 6.64009 19.8688 6.64009 19.84C6.64009 19.8112 6.61129 19.72 6.57289 19.6336C6.53449 19.552 6.45769 19.3408 6.40969 19.168C6.35689 18.9952 6.29929 18.712 6.25609 18.208H6.55849C6.83209 18.208 6.87529 18.1936 7.00009 18.064C7.12489 17.9344 7.16809 17.92 7.52329 17.9056C7.7393 17.9008 7.95049 17.8864 7.99369 17.8816ZM9.9473 17.9872L10.2017 18.016C10.3409 18.0352 10.5329 18.088 10.6241 18.1408C10.7153 18.1936 10.8833 18.2944 10.9937 18.3664C11.1473 18.4624 11.2625 18.496 11.6801 18.496V20.2096C11.6753 21.7888 11.6849 21.9376 11.7617 22.0384C11.8433 22.144 11.8865 22.1536 12.5921 22.1776C13.0001 22.192 13.3745 22.2256 13.4177 22.2448C13.4705 22.2736 13.5041 22.3408 13.5041 22.432C13.5041 22.5472 13.4801 22.5808 13.3697 22.6048C13.2977 22.624 12.7313 22.6288 12.1121 22.6144C11.1617 22.5904 10.9457 22.576 10.7489 22.4992C10.6241 22.4464 10.4177 22.312 10.2929 22.192C10.1393 22.048 10.0433 21.8992 9.98569 21.736C9.91849 21.5248 9.9089 21.28 9.92809 19.744L9.9473 17.9872Z" fill="#6E3E2C"/>
<path d="M17.2578 6.6592C17.2818 6.6496 17.2962 6.5968 17.2962 6.544C17.2962 6.4912 17.325 6.448 17.3586 6.448C17.3874 6.448 17.589 6.4816 17.8002 6.52C18.0114 6.5584 18.2802 6.616 18.4002 6.6448C18.5202 6.6736 18.813 6.76 19.0482 6.832C19.2834 6.904 19.6962 7.0528 19.9602 7.168C20.2242 7.2784 20.637 7.48 20.8722 7.6144C21.1074 7.744 21.4626 7.9552 21.6546 8.0848C21.8418 8.2144 22.1586 8.4448 22.3458 8.6032C22.5378 8.7568 22.8018 9.0016 22.9362 9.1408C23.0706 9.2848 23.277 9.52 23.4018 9.664C23.5266 9.808 23.7474 10.0816 23.8962 10.264C24.0402 10.4464 24.1602 10.6288 24.1602 10.6576C24.1602 10.6912 24.1218 10.72 24.0786 10.72C24.0306 10.7248 23.9346 10.6816 23.8626 10.624C23.7858 10.5712 23.7138 10.528 23.6946 10.528C23.6706 10.528 23.5698 10.4416 23.4642 10.3312C23.3394 10.2064 23.0898 10.0528 22.7682 9.8944C22.4898 9.7648 22.0818 9.5488 21.8562 9.424C21.6306 9.2944 21.309 9.1408 21.1362 9.0736C20.9634 9.0112 20.7186 8.9248 20.5842 8.8816C20.4498 8.8336 20.301 8.8 20.2434 8.8C20.1906 8.8 20.1282 8.824 20.0994 8.848C20.0706 8.88 19.9362 8.8432 19.6962 8.7376C19.4994 8.6464 19.1538 8.5216 18.9282 8.4544C18.7026 8.3872 18.381 8.296 18.2082 8.2528C18.0354 8.2144 17.7234 8.176 17.5122 8.1712C17.301 8.1616 17.061 8.176 16.9842 8.1952C16.8642 8.2288 16.8354 8.2192 16.8114 8.1472C16.7922 8.08 16.6722 8.0272 16.3314 7.9456C16.0818 7.8832 15.645 7.8112 15.3522 7.7824C14.949 7.7392 14.685 7.744 14.2482 7.7872C13.9314 7.8208 13.4754 7.8928 13.2402 7.9408C13.005 7.9936 12.6114 8.1088 12.3762 8.1952C12.141 8.2864 11.6946 8.4784 11.3922 8.6224C11.0898 8.7664 10.701 8.9776 10.5282 9.088C10.3554 9.1984 10.1682 9.3376 10.1058 9.3952C10.0002 9.4912 9.9954 9.5248 9.9762 11.512L9.9666 10.5664C9.957 9.8272 9.9378 9.616 9.8898 9.616C9.8562 9.616 9.8034 9.6448 9.7698 9.6736C9.7362 9.7072 9.7122 9.8368 9.7122 9.9616C9.7122 10.0912 9.6882 10.192 9.6642 10.192C9.6402 10.192 9.6162 10.1296 9.6162 10.048C9.6162 9.9664 9.597 9.904 9.573 9.904C9.5442 9.904 9.3138 10.1152 9.0546 10.3744C8.7954 10.6288 8.3826 11.0608 8.1378 11.3296C7.7634 11.7472 7.6722 11.824 7.5522 11.824C7.4706 11.824 7.4082 11.8096 7.4082 11.7904C7.4082 11.7664 7.509 11.5552 7.629 11.32C7.749 11.0848 7.9362 10.7344 8.0418 10.552C8.1426 10.3696 8.349 10.0528 8.493 9.856C8.637 9.6592 8.8674 9.3712 9.0066 9.2128C9.2418 8.9488 9.261 8.9344 9.3618 8.9968C9.4626 9.0592 9.4866 9.0496 9.6642 8.872C9.8178 8.7232 9.8562 8.6512 9.8466 8.5408C9.8322 8.416 9.8706 8.3728 10.2162 8.1232C10.4274 7.9696 10.8498 7.7152 11.1522 7.5568C11.4546 7.3984 11.9394 7.1824 12.2322 7.0768C12.525 6.9664 12.7746 6.88 12.7986 6.88C12.8178 6.88 12.8418 6.9232 12.8562 6.976C12.8754 7.048 12.9186 7.072 13.0338 7.072C13.1202 7.072 13.461 7.0192 13.7922 6.9472C14.1234 6.88 14.5554 6.8032 14.7522 6.7792C14.949 6.7552 15.4338 6.7072 15.8322 6.6736C16.2258 6.64 16.701 6.6256 16.8882 6.6448C17.0754 6.664 17.2386 6.6688 17.2578 6.6592Z" fill="#2D6562"/>
<path d="M21.6882 24.8704C21.6258 24.7552 21.573 24.6256 21.573 24.5776C21.573 24.496 21.645 24.4912 22.9506 24.5056C24.0546 24.52 24.357 24.5344 24.4626 24.592C24.5346 24.6304 24.597 24.688 24.597 24.712C24.597 24.7408 24.5586 24.7984 24.5106 24.8416C24.4386 24.9088 24.2706 24.9328 23.5842 24.9712C23.1234 25 22.533 25.0336 21.8082 25.072L21.6882 24.8704Z" fill="#2D6562"/>
<path d="M20.0703 8.90559C20.0655 8.88159 20.0799 8.84799 20.1039 8.83359C20.1279 8.81439 20.1903 8.79999 20.2431 8.79999C20.3007 8.79999 20.4543 8.83359 20.5839 8.88159C20.7183 8.92479 20.9631 9.01119 21.1359 9.07359C21.3087 9.14079 21.6303 9.29439 21.8559 9.42399C22.0815 9.54879 22.4895 9.76479 22.7679 9.89439C23.0895 10.0528 23.3391 10.2064 23.4639 10.3312C23.5695 10.4416 23.6703 10.528 23.6943 10.528C23.7135 10.528 23.7855 10.5712 23.8623 10.6288C23.9487 10.696 24.0303 10.72 24.1023 10.7008C24.1935 10.6768 24.2367 10.7152 24.3951 10.9696C24.4959 11.1376 24.6975 11.5072 24.8415 11.8C24.9903 12.0928 25.1823 12.5248 25.2783 12.76C25.3695 12.9952 25.5087 13.408 25.5903 13.672C25.6671 13.936 25.7727 14.3584 25.8207 14.608C25.8879 14.9488 25.9071 15.2992 25.9071 16C25.9119 16.6672 25.8879 17.0848 25.8255 17.464C25.7775 17.7568 25.6959 18.1744 25.6383 18.4C25.5855 18.6256 25.4367 19.1104 25.3071 19.48C25.1823 19.8496 24.9951 20.3008 24.8991 20.488C24.7983 20.6752 24.6447 20.944 24.5487 21.0976C24.4527 21.2464 24.2703 21.5248 24.1359 21.7168C24.0063 21.9088 23.8191 22.1536 23.5503 22.456L23.3487 22.24C23.2383 22.12 22.9887 21.7888 22.7919 21.496C22.5903 21.2032 22.4319 20.9296 22.4319 20.8816C22.4319 20.8384 22.5903 20.632 22.7823 20.4208C22.9695 20.2144 23.2479 19.864 23.3967 19.6432C23.5455 19.4224 23.7327 19.1104 23.8143 18.952C23.8911 18.7936 24.0159 18.5008 24.0831 18.304C24.1551 18.1072 24.2607 17.7712 24.3183 17.56C24.4047 17.2288 24.4191 17.0464 24.4239 16.24C24.4239 15.6208 24.3999 15.1984 24.3567 14.992C24.3231 14.8192 24.2271 14.4448 24.1503 14.152C24.0735 13.8592 23.9151 13.3888 23.7951 13.096C23.6799 12.8032 23.4831 12.3952 23.3583 12.184C23.2383 11.9728 22.9983 11.5936 22.8207 11.344C22.6479 11.0944 22.3119 10.6864 22.0719 10.4416C21.8367 10.192 21.4143 9.82239 21.1359 9.61599C20.8575 9.40959 20.5071 9.17439 20.3583 9.09279C20.2047 9.01119 20.0751 8.92479 20.0703 8.90559Z" fill="#399995"/>
<path d="M23.3579 24.9797C24.3905 24.9328 24.4102 24.9319 24.5103 24.8128C24.5679 24.7456 24.6447 24.6928 24.6783 24.6928C24.7071 24.688 24.8607 24.7888 25.0143 24.9136C25.1631 25.0336 25.3551 25.1968 25.4319 25.2688C25.5087 25.3408 25.6863 25.4896 25.8159 25.6048C25.9503 25.72 26.1999 25.9504 26.3823 26.1232C26.5647 26.3008 26.7039 26.4832 26.7087 26.536C26.7087 26.5888 26.6703 26.6656 26.6271 26.704C26.5599 26.7664 26.3343 26.776 25.2687 26.7808C24.3951 26.7808 23.9103 26.7616 23.7279 26.7184C23.5839 26.6848 23.3871 26.6032 23.2959 26.5408C23.2047 26.4736 22.8399 26.1424 22.4895 25.8064C22.1439 25.4704 21.8607 25.168 21.8655 25.1344C21.8703 25.1056 21.9615 25.0672 22.0671 25.0528C22.1775 25.0432 22.7439 25.0096 23.3343 24.9808L23.3579 24.9797Z" fill="#399995"/>
<path d="M15.904 9.4768C15.8896 9.0448 15.8992 8.92 15.952 8.8624C16.0144 8.8 16.1584 8.7904 16.936 8.8144C17.5888 8.8336 17.992 8.8672 18.352 8.9392C18.6304 8.9968 18.952 9.0784 19.072 9.1216C19.192 9.16 19.3552 9.2224 19.432 9.2512C19.5088 9.28 19.792 9.4144 20.056 9.5488C20.32 9.6832 20.656 9.8752 20.8 9.976C20.944 10.0816 21.1936 10.2736 21.3472 10.408C21.5056 10.5376 21.7456 10.8016 21.88 10.984C22.0144 11.1664 22.1968 11.4832 22.2832 11.68C22.3744 11.8768 22.4752 12.1696 22.5088 12.328C22.5424 12.4864 22.5712 12.8128 22.576 13.048C22.576 13.2832 22.552 13.6192 22.5184 13.792C22.4896 13.9648 22.4032 14.2576 22.3264 14.44C22.2544 14.6224 22.12 14.8912 22.0336 15.0304C21.952 15.1744 21.76 15.4192 21.616 15.5776C21.472 15.7408 21.2224 15.9712 21.064 16.0912C20.9056 16.2112 20.6272 16.3888 20.44 16.4848C20.2528 16.5808 19.9216 16.7248 19.696 16.8016C19.4704 16.8832 19.1728 16.9696 19.0384 17.0032C18.8688 17.0384 18.784 17.08 18.784 17.128C18.784 17.1664 18.928 17.368 19.1056 17.5792C19.288 17.7856 19.7632 18.4048 20.1664 18.9568C20.5696 19.5088 21.0832 20.1952 21.3088 20.488C21.5344 20.7808 21.88 21.2416 22.072 21.52C22.2688 21.7984 22.5424 22.1776 22.6816 22.3648C22.8208 22.552 23.1232 22.9504 23.3488 23.2528C23.5792 23.5552 23.8048 23.8816 23.8528 23.9776C23.9056 24.0784 23.9344 24.1696 23.92 24.1792C23.9056 24.1936 23.3152 24.2176 21.304 24.2656L21.1792 24.1312C21.1072 24.0544 20.7328 23.5264 20.3392 22.96C19.9504 22.3936 19.456 21.688 19.24 21.3904C19.0288 21.0928 18.5632 20.44 18.208 19.9312C17.8528 19.4272 17.2864 18.64 16.3504 17.368L16.5328 17.2144C16.6384 17.128 16.7488 17.056 16.7824 17.056C16.8112 17.056 16.9216 16.9744 17.0224 16.8736C17.1184 16.7776 17.2 16.6768 17.2 16.648C17.2 16.6192 17.2336 16.5664 17.272 16.528C17.3056 16.4896 17.4208 16.2112 17.704 15.3616L18.088 15.2608C18.2992 15.2032 18.6112 15.0832 18.784 14.9968C18.9568 14.9104 19.1824 14.776 19.288 14.6992C19.3936 14.6224 19.5664 14.4592 19.672 14.3344C19.7776 14.2048 19.9216 13.9504 19.9984 13.768C20.0752 13.5808 20.1472 13.2928 20.1616 13.12C20.176 12.9424 20.1616 12.688 20.128 12.52C20.0944 12.3616 19.9936 12.0928 19.9072 11.92C19.8208 11.7472 19.624 11.4784 19.4704 11.32C19.3168 11.1616 19.0864 10.9552 18.952 10.8688C18.8224 10.7824 18.616 10.6576 18.496 10.6C18.376 10.5376 18.1408 10.4464 17.968 10.3936C17.7952 10.3456 17.44 10.264 17.176 10.2208C16.912 10.1776 16.5232 10.1152 15.928 10.0192L15.904 9.4768Z" fill="#ED5519"/>
<path d="M15.88 26.2096C15.6976 26.2192 15.3808 26.2192 15.184 26.2096C14.9872 26.2048 15.136 26.1952 15.52 26.1952C15.904 26.1952 16.0624 26.2048 15.88 26.2096Z" fill="#998E89"/>
<path d="M17.4067 16.2256C17.4163 16.144 17.4019 16.096 17.3587 16.096C17.3251 16.096 17.2675 16.1584 17.2243 16.24C17.1859 16.3168 17.0371 16.4656 16.8979 16.5712C16.7635 16.672 16.5139 16.7968 16.3459 16.8448L16.0435 16.936C16.2691 17.2528 16.3507 17.344 16.3699 17.344C16.3939 17.3392 16.4803 17.2768 16.5619 17.2C16.6483 17.1184 16.7491 17.056 16.7779 17.056C16.8115 17.056 16.9219 16.9744 17.0179 16.8784C17.1187 16.7776 17.2003 16.6816 17.2003 16.6576C17.2003 16.6384 17.2435 16.5664 17.2963 16.4896C17.3443 16.4176 17.3971 16.3024 17.4067 16.2256Z" fill="#ED5519"/>
<path d="M9.8558 8.59839C9.8606 8.55519 9.8414 8.50719 9.8126 8.49279C9.7886 8.48319 9.659 8.56959 9.5198 8.68479C9.3134 8.86239 9.2846 8.90559 9.3326 8.96799C9.3662 9.01119 9.4142 9.04479 9.443 9.04479C9.467 9.03999 9.5726 8.95839 9.6686 8.86239C9.7694 8.76159 9.851 8.64159 9.8558 8.59839Z" fill="#2D6562"/>
<path d="M17.1423 6.4336C17.0559 6.4144 16.6047 6.4 16.1439 6.4048C15.6447 6.4048 15.0399 6.4432 14.6559 6.496C14.3007 6.5392 13.8447 6.616 13.6479 6.6592C13.4511 6.7024 13.1871 6.7696 13.0575 6.808C12.8895 6.8608 12.8367 6.904 12.8463 6.9616C12.8511 7.024 12.9087 7.0528 13.0239 7.0624C13.1151 7.072 13.4607 7.0192 13.7919 6.952C14.1231 6.88 14.5551 6.8032 14.7519 6.7792C14.9487 6.7552 15.4335 6.7072 15.8319 6.6736C16.2255 6.64 16.7007 6.6256 16.8879 6.6448C17.0751 6.664 17.2383 6.6688 17.2575 6.6592C17.2815 6.6496 17.2959 6.6016 17.2959 6.5536C17.2959 6.4992 17.2447 6.4592 17.1423 6.4336Z" fill="#2D6562"/>
<path d="M19.8127 24.2792C19.8037 24.2705 19.7965 24.2656 19.7918 24.2656C19.7994 24.2573 19.8065 24.2635 19.8127 24.2792C19.8778 24.3415 20.0383 24.5996 20.051 24.6544C20.0654 24.7168 20.0366 24.7984 19.979 24.856C19.8974 24.9424 19.5672 25.0624 19.5 25C19.4568 24.9616 19.7294 24.7888 19.7294 24.7648C19.7246 24.7408 19.763 24.6784 19.811 24.6304C19.8499 24.5915 19.8395 24.3468 19.8127 24.2792Z" fill="#6E3E2C"/>
<path d="M20.3294 24.9424C20.267 24.9088 20.2142 24.88 20.2046 24.88C20.1998 24.88 20.051 24.9616 19.883 25.0672C19.6574 25.2016 19.0721 25.5136 19.0625 25.5952C19.0577 25.6576 19.5806 25.5328 19.6286 25.5952C19.6766 25.6576 19.7486 25.768 19.7918 25.8352C19.835 25.9024 19.9694 26.0128 20.0942 26.08C20.3198 26.2 20.3198 26.2 20.4062 26.104C20.4542 26.0512 20.531 25.8928 20.5742 25.7584C20.6174 25.6192 20.651 25.432 20.651 25.3504C20.651 25.2448 20.6174 25.1584 20.5454 25.096C20.483 25.0432 20.387 24.9712 20.3294 24.9424Z" fill="#6E3E2C"/>
<path d="M50.4 17.196V14.652H54.312C55.112 14.652 55.728 14.452 56.16 14.052C56.608 13.636 56.832 13.068 56.832 12.348C56.832 11.692 56.608 11.148 56.16 10.716C55.728 10.268 55.112 10.044 54.312 10.044H50.4V7.37999H54.6C55.688 7.37999 56.64 7.59599 57.456 8.02799C58.288 8.44399 58.928 9.01999 59.376 9.75599C59.84 10.492 60.072 11.34 60.072 12.3C60.072 13.292 59.84 14.156 59.376 14.892C58.928 15.612 58.288 16.18 57.456 16.596C56.624 16.996 55.656 17.196 54.552 17.196H50.4ZM48 24.252V7.37999H51.264V24.252H48ZM57.216 24.252L51.648 16.956L54.648 16.02L61.176 24.252H57.216Z" fill="white"/>
<path d="M67.9033 24.492C66.6873 24.492 65.6073 24.236 64.6633 23.724C63.7193 23.196 62.9673 22.476 62.4073 21.564C61.8633 20.652 61.5913 19.612 61.5913 18.444C61.5913 17.292 61.8553 16.268 62.3833 15.372C62.9273 14.46 63.6633 13.74 64.5913 13.212C65.5193 12.668 66.5513 12.396 67.6873 12.396C68.8073 12.396 69.7913 12.652 70.6393 13.164C71.5033 13.66 72.1753 14.348 72.6553 15.228C73.1513 16.092 73.3993 17.076 73.3993 18.18C73.3993 18.388 73.3833 18.604 73.3513 18.828C73.3353 19.036 73.2953 19.276 73.2313 19.548L63.4873 19.572V17.22L71.7673 17.196L70.4953 18.18C70.4633 17.492 70.3353 16.916 70.1113 16.452C69.9033 15.988 69.5913 15.636 69.1753 15.396C68.7753 15.14 68.2793 15.012 67.6873 15.012C67.0633 15.012 66.5193 15.156 66.0553 15.444C65.5913 15.716 65.2313 16.108 64.9753 16.62C64.7353 17.116 64.6153 17.708 64.6153 18.396C64.6153 19.1 64.7433 19.716 64.9993 20.244C65.2713 20.756 65.6553 21.156 66.1513 21.444C66.6473 21.716 67.2233 21.852 67.8793 21.852C68.4713 21.852 69.0073 21.756 69.4873 21.564C69.9673 21.356 70.3833 21.052 70.7353 20.652L72.5833 22.5C72.0233 23.156 71.3353 23.652 70.5193 23.988C69.7193 24.324 68.8473 24.492 67.9033 24.492Z" fill="white"/>
<path d="M81.7757 24.492C80.9437 24.492 80.1917 24.324 79.5197 23.988C78.8477 23.636 78.3117 23.164 77.9117 22.572C77.5117 21.98 77.2957 21.3 77.2637 20.532V16.428C77.2957 15.66 77.5117 14.98 77.9117 14.388C78.3277 13.78 78.8637 13.3 79.5197 12.948C80.1917 12.596 80.9437 12.42 81.7757 12.42C82.8477 12.42 83.8077 12.684 84.6557 13.212C85.5037 13.74 86.1677 14.46 86.6477 15.372C87.1437 16.284 87.3917 17.316 87.3917 18.468C87.3917 19.604 87.1437 20.628 86.6477 21.54C86.1677 22.452 85.5037 23.172 84.6557 23.7C83.8077 24.228 82.8477 24.492 81.7757 24.492ZM81.2237 21.588C81.7997 21.588 82.3117 21.46 82.7597 21.204C83.2077 20.932 83.5517 20.564 83.7917 20.1C84.0477 19.62 84.1757 19.068 84.1757 18.444C84.1757 17.836 84.0477 17.3 83.7917 16.836C83.5517 16.356 83.2077 15.988 82.7597 15.732C82.3117 15.46 81.7997 15.324 81.2237 15.324C80.6637 15.324 80.1597 15.46 79.7117 15.732C79.2637 15.988 78.9117 16.356 78.6557 16.836C78.4157 17.3 78.2957 17.836 78.2957 18.444C78.2957 19.068 78.4157 19.62 78.6557 20.1C78.9117 20.564 79.2557 20.932 79.6877 21.204C80.1357 21.46 80.6477 21.588 81.2237 21.588ZM75.3437 29.1V12.66H78.4877V15.708L77.9597 18.516L78.4637 21.324V29.1H75.3437Z" fill="white"/>
<path d="M94.3971 24.492C93.3731 24.492 92.4611 24.276 91.6611 23.844C90.8771 23.412 90.2611 22.812 89.8131 22.044C89.3651 21.276 89.1411 20.388 89.1411 19.38V12.66H92.3091V19.308C92.3091 19.788 92.3891 20.204 92.5491 20.556C92.7091 20.892 92.9491 21.148 93.2691 21.324C93.5891 21.5 93.9651 21.588 94.3971 21.588C95.0531 21.588 95.5651 21.388 95.9331 20.988C96.3011 20.588 96.4851 20.028 96.4851 19.308V12.66H99.6291V19.38C99.6291 20.404 99.4051 21.3 98.9571 22.068C98.5251 22.836 97.9091 23.436 97.1091 23.868C96.3251 24.284 95.4211 24.492 94.3971 24.492Z" fill="white"/>
<path d="M102.133 24.252V12.66H105.277V24.252H102.133ZM105.277 17.844L104.053 17.028C104.197 15.604 104.613 14.484 105.301 13.668C105.989 12.836 106.981 12.42 108.277 12.42C108.837 12.42 109.341 12.516 109.789 12.708C110.237 12.884 110.645 13.18 111.013 13.596L109.045 15.852C108.869 15.66 108.653 15.516 108.397 15.42C108.157 15.324 107.877 15.276 107.557 15.276C106.885 15.276 106.333 15.492 105.901 15.924C105.485 16.34 105.277 16.98 105.277 17.844Z" fill="white"/>
<path d="M118.502 24.492C117.67 24.492 116.918 24.324 116.246 23.988C115.574 23.636 115.038 23.164 114.638 22.572C114.238 21.98 114.022 21.3 113.99 20.532V16.428C114.022 15.66 114.238 14.98 114.638 14.388C115.054 13.78 115.59 13.3 116.246 12.948C116.918 12.596 117.67 12.42 118.502 12.42C119.574 12.42 120.534 12.684 121.382 13.212C122.23 13.74 122.894 14.46 123.374 15.372C123.87 16.284 124.118 17.316 124.118 18.468C124.118 19.604 123.87 20.628 123.374 21.54C122.894 22.452 122.23 23.172 121.382 23.7C120.534 24.228 119.574 24.492 118.502 24.492ZM117.95 21.588C118.526 21.588 119.038 21.46 119.486 21.204C119.934 20.932 120.278 20.564 120.518 20.1C120.774 19.62 120.902 19.068 120.902 18.444C120.902 17.836 120.774 17.3 120.518 16.836C120.278 16.356 119.934 15.988 119.486 15.732C119.038 15.46 118.526 15.324 117.95 15.324C117.39 15.324 116.886 15.46 116.438 15.732C115.99 15.988 115.638 16.356 115.382 16.836C115.142 17.3 115.022 17.836 115.022 18.444C115.022 19.068 115.142 19.62 115.382 20.1C115.638 20.564 115.982 20.932 116.414 21.204C116.862 21.46 117.374 21.588 117.95 21.588ZM112.07 29.1V12.66H115.214V15.708L114.686 18.516L115.19 21.324V29.1H112.07Z" fill="white"/>
<path d="M131.628 24.492C130.46 24.492 129.404 24.228 128.46 23.7C127.532 23.156 126.788 22.428 126.228 21.516C125.684 20.588 125.412 19.556 125.412 18.42C125.412 17.284 125.684 16.268 126.228 15.372C126.772 14.46 127.516 13.74 128.46 13.212C129.404 12.668 130.452 12.396 131.604 12.396C132.788 12.396 133.844 12.668 134.772 13.212C135.716 13.74 136.46 14.46 137.004 15.372C137.548 16.268 137.82 17.284 137.82 18.42C137.82 19.556 137.548 20.588 137.004 21.516C136.46 22.428 135.716 23.156 134.772 23.7C133.844 24.228 132.796 24.492 131.628 24.492ZM131.604 21.564C132.196 21.564 132.716 21.436 133.164 21.18C133.628 20.908 133.98 20.54 134.22 20.076C134.476 19.596 134.604 19.052 134.604 18.444C134.604 17.836 134.476 17.3 134.22 16.836C133.964 16.372 133.612 16.012 133.164 15.756C132.716 15.484 132.196 15.348 131.604 15.348C131.028 15.348 130.516 15.484 130.068 15.756C129.62 16.012 129.268 16.372 129.012 16.836C128.756 17.3 128.628 17.836 128.628 18.444C128.628 19.052 128.756 19.596 129.012 20.076C129.268 20.54 129.62 20.908 130.068 21.18C130.516 21.436 131.028 21.564 131.604 21.564Z" fill="white"/>
<path d="M143.828 24.516C143.172 24.516 142.524 24.428 141.884 24.252C141.26 24.076 140.684 23.836 140.156 23.532C139.628 23.212 139.172 22.828 138.788 22.38L140.66 20.484C141.06 20.932 141.524 21.268 142.052 21.492C142.58 21.716 143.164 21.828 143.804 21.828C144.316 21.828 144.7 21.756 144.956 21.612C145.228 21.468 145.364 21.252 145.364 20.964C145.364 20.644 145.22 20.396 144.932 20.22C144.66 20.044 144.3 19.9 143.852 19.788C143.404 19.66 142.932 19.524 142.436 19.38C141.956 19.22 141.492 19.02 141.044 18.78C140.596 18.524 140.228 18.18 139.94 17.748C139.668 17.3 139.532 16.724 139.532 16.02C139.532 15.284 139.708 14.644 140.06 14.1C140.428 13.556 140.948 13.132 141.62 12.828C142.292 12.524 143.084 12.372 143.996 12.372C144.956 12.372 145.82 12.54 146.588 12.876C147.372 13.212 148.02 13.716 148.532 14.388L146.636 16.284C146.284 15.852 145.884 15.54 145.436 15.348C145.004 15.156 144.532 15.06 144.02 15.06C143.556 15.06 143.196 15.132 142.94 15.276C142.7 15.42 142.58 15.62 142.58 15.876C142.58 16.164 142.716 16.388 142.988 16.548C143.276 16.708 143.644 16.852 144.092 16.98C144.54 17.092 145.004 17.228 145.484 17.388C145.98 17.532 146.444 17.74 146.876 18.012C147.324 18.284 147.684 18.644 147.956 19.092C148.244 19.54 148.388 20.116 148.388 20.82C148.388 21.956 147.98 22.86 147.164 23.532C146.348 24.188 145.236 24.516 143.828 24.516Z" fill="white"/>
<path d="M150.508 24.252V6.89999H153.652V24.252H150.508Z" fill="white"/>
<path d="M160.085 24.348L155.237 12.66H158.645L161.861 21.588H160.709L164.045 12.66H167.477L162.317 24.324L160.085 24.348ZM156.869 29.1L160.397 21.636L162.317 24.324L160.205 29.1H156.869Z" fill="white"/>
</svg>